<?xml version="1.0"?>
<!DOCTYPE svg PUBLIC "-//W3C//DTD SVG 1.1//EN" "http://www.w3.org/Graphics/SVG/1.1/DTD/svg11.dtd">
<svg xmlns="http://www.w3.org/2000/svg" xmlns:xl="http://www.w3.org/1999/xlink" version="1.1" viewBox="24 175 26 44" width="26pt" height="44pt"><metadata xmlns:dc="http://purl.org/dc/elements/1.1/"><dc:date>2012-03-24 15:52Z</dc:date><!-- Produced by OmniGraffle Professional 4.2.1 --></metadata><defs></defs><g stroke="none" stroke-opacity="1" stroke-dasharray="none" fill="none" fill-opacity="1"><title>Canvas 1</title><g><title>Layer 1</title><path d="M 47.59031 204.821 L 47.59031 213.16647 L 36.794907 217.29341 L 36.794907 208.58107 Z" fill="red"/><path d="M 47.59031 204.821 L 47.59031 213.16647 L 36.794907 217.29341 L 36.794907 208.58107 Z" stroke="black" stroke-linecap="butt" stroke-linejoin="miter" stroke-width="1"/><path d="M 25.999908 204.821 L 25.999908 213.16647 L 36.795109 217.29341 L 36.795109 208.58107 Z" fill="red"/><path d="M 25.999908 204.821 L 25.999908 213.16647 L 36.795109 217.29341 L 36.795109 208.58107 Z" stroke="black" stroke-linecap="butt" stroke-linejoin="miter" stroke-width="1"/><path d="M 36.765759 201.061 L 25.999908 204.77522 L 36.765759 208.48944 L 47.531609 204.77522 Z" fill="red"/><path d="M 36.765759 201.061 L 25.999908 204.77522 L 36.765759 208.48944 L 47.531609 204.77522 Z" stroke="black" stroke-linecap="butt" stroke-linejoin="miter" stroke-width="1"/><path d="M 47.59031 196.787 L 47.59031 205.13248 L 36.794907 209.25941 L 36.794907 200.54707 Z" fill="yellow"/><path d="M 47.59031 196.787 L 47.59031 205.13248 L 36.794907 209.25941 L 36.794907 200.54707 Z" stroke="black" stroke-linecap="butt" stroke-linejoin="miter" stroke-width="1"/><path d="M 25.999908 196.787 L 25.999908 205.13248 L 36.795109 209.25941 L 36.795109 200.54707 Z" fill="yellow"/><path d="M 25.999908 196.787 L 25.999908 205.13248 L 36.795109 209.25941 L 36.795109 200.54707 Z" stroke="black" stroke-linecap="butt" stroke-linejoin="miter" stroke-width="1"/><path d="M 36.765759 193.02701 L 25.999908 196.74123 L 36.765759 200.45544 L 47.531609 196.74123 Z" fill="yellow"/><path d="M 36.765759 193.02701 L 25.999908 196.74123 L 36.765759 200.45544 L 47.531609 196.74123 Z" stroke="black" stroke-linecap="butt" stroke-linejoin="miter" stroke-width="1"/></g></g></svg>
