<?xml version="1.0"?>
<!DOCTYPE svg PUBLIC "-//W3C//DTD SVG 1.1//EN" "http://www.w3.org/Graphics/SVG/1.1/DTD/svg11.dtd">
<svg xmlns="http://www.w3.org/2000/svg" xmlns:xl="http://www.w3.org/1999/xlink" version="1.1" viewBox="24 295 26 44" width="26pt" height="44pt"><metadata xmlns:dc="http://purl.org/dc/elements/1.1/"><dc:date>2012-03-24 15:52Z</dc:date><!-- Produced by OmniGraffle Professional 4.2.1 --></metadata><defs></defs><g stroke="none" stroke-opacity="1" stroke-dasharray="none" fill="none" fill-opacity="1"><title>Canvas 1</title><g><title>Layer 1</title><path d="M 47.59031 324.54602 L 47.59031 332.89151 L 36.794907 337.01843 L 36.794907 328.3061 Z" fill="red"/><path d="M 47.59031 324.54602 L 47.59031 332.89151 L 36.794907 337.01843 L 36.794907 328.3061 Z" stroke="black" stroke-linecap="butt" stroke-linejoin="miter" stroke-width="1"/><path d="M 25.999908 324.54602 L 25.999908 332.89151 L 36.795109 337.01843 L 36.795109 328.3061 Z" fill="red"/><path d="M 25.999908 324.54602 L 25.999908 332.89151 L 36.795109 337.01843 L 36.795109 328.3061 Z" stroke="black" stroke-linecap="butt" stroke-linejoin="miter" stroke-width="1"/><path d="M 36.765759 320.78601 L 25.999908 324.50024 L 36.765759 328.21448 L 47.531609 324.50024 Z" fill="red"/><path d="M 36.765759 320.78601 L 25.999908 324.50024 L 36.765759 328.21448 L 47.531609 324.50024 Z" stroke="black" stroke-linecap="butt" stroke-linejoin="miter" stroke-width="1"/><path d="M 47.59031 316.51196 L 47.59031 324.85745 L 36.794907 328.98438 L 36.794907 320.27203 Z" fill="lime"/><path d="M 47.59031 316.51196 L 47.59031 324.85745 L 36.794907 328.98438 L 36.794907 320.27203 Z" stroke="black" stroke-linecap="butt" stroke-linejoin="miter" stroke-width="1"/><path d="M 25.999908 316.51196 L 25.999908 324.85745 L 36.795109 328.98438 L 36.795109 320.27203 Z" fill="lime"/><path d="M 25.999908 316.51196 L 25.999908 324.85745 L 36.795109 328.98438 L 36.795109 320.27203 Z" stroke="black" stroke-linecap="butt" stroke-linejoin="miter" stroke-width="1"/><path d="M 36.765759 312.75195 L 25.999908 316.46619 L 36.765759 320.18042 L 47.531609 316.46619 Z" fill="lime"/><path d="M 36.765759 312.75195 L 25.999908 316.46619 L 36.765759 320.18042 L 47.531609 316.46619 Z" stroke="black" stroke-linecap="butt" stroke-linejoin="miter" stroke-width="1"/></g></g></svg>
