<?xml version="1.0"?>
<!DOCTYPE svg PUBLIC "-//W3C//DTD SVG 1.1//EN" "http://www.w3.org/Graphics/SVG/1.1/DTD/svg11.dtd">
<svg xmlns="http://www.w3.org/2000/svg" xmlns:xl="http://www.w3.org/1999/xlink" version="1.1" viewBox="24 354 26 44" width="26pt" height="44pt"><metadata xmlns:dc="http://purl.org/dc/elements/1.1/"><dc:date>2012-03-24 15:52Z</dc:date><!-- Produced by OmniGraffle Professional 4.2.1 --></metadata><defs></defs><g stroke="none" stroke-opacity="1" stroke-dasharray="none" fill="none" fill-opacity="1"><title>Canvas 1</title><g><title>Layer 1</title><path d="M 47.59031 383.6138 L 47.59031 391.9593 L 36.794907 396.08621 L 36.794907 387.37387 Z" fill="yellow"/><path d="M 47.59031 383.6138 L 47.59031 391.9593 L 36.794907 396.08621 L 36.794907 387.37387 Z" stroke="black" stroke-linecap="butt" stroke-linejoin="miter" stroke-width="1"/><path d="M 25.999908 383.6138 L 25.999908 391.9593 L 36.795109 396.08621 L 36.795109 387.37387 Z" fill="yellow"/><path d="M 25.999908 383.6138 L 25.999908 391.9593 L 36.795109 396.08621 L 36.795109 387.37387 Z" stroke="black" stroke-linecap="butt" stroke-linejoin="miter" stroke-width="1"/><path d="M 36.765759 379.85382 L 25.999908 383.56805 L 36.765759 387.28229 L 47.531609 383.56805 Z" fill="yellow"/><path d="M 36.765759 379.85382 L 25.999908 383.56805 L 36.765759 387.28229 L 47.531609 383.56805 Z" stroke="black" stroke-linecap="butt" stroke-linejoin="miter" stroke-width="1"/><path d="M 47.59031 375.5798 L 47.59031 383.9253 L 36.794907 388.05222 L 36.794907 379.33987 Z" fill="lime"/><path d="M 47.59031 375.5798 L 47.59031 383.9253 L 36.794907 388.05222 L 36.794907 379.33987 Z" stroke="black" stroke-linecap="butt" stroke-linejoin="miter" stroke-width="1"/><path d="M 25.999908 375.5798 L 25.999908 383.9253 L 36.795109 388.05222 L 36.795109 379.33987 Z" fill="lime"/><path d="M 25.999908 375.5798 L 25.999908 383.9253 L 36.795109 388.05222 L 36.795109 379.33987 Z" stroke="black" stroke-linecap="butt" stroke-linejoin="miter" stroke-width="1"/><path d="M 36.765759 371.81982 L 25.999908 375.53406 L 36.765759 379.2483 L 47.531609 375.53406 Z" fill="lime"/><path d="M 36.765759 371.81982 L 25.999908 375.53406 L 36.765759 379.2483 L 47.531609 375.53406 Z" stroke="black" stroke-linecap="butt" stroke-linejoin="miter" stroke-width="1"/></g></g></svg>
