<?xml version="1.0"?>
<!DOCTYPE svg PUBLIC "-//W3C//DTD SVG 1.1//EN" "http://www.w3.org/Graphics/SVG/1.1/DTD/svg11.dtd">
<svg xmlns="http://www.w3.org/2000/svg" xmlns:xl="http://www.w3.org/1999/xlink" version="1.1" viewBox="23 419 26 44" width="26pt" height="44pt"><metadata xmlns:dc="http://purl.org/dc/elements/1.1/"><dc:date>2012-03-24 15:52Z</dc:date><!-- Produced by OmniGraffle Professional 4.2.1 --></metadata><defs></defs><g stroke="none" stroke-opacity="1" stroke-dasharray="none" fill="none" fill-opacity="1"><title>Canvas 1</title><g><title>Layer 1</title><path d="M 46.59029 448.6141 L 46.59029 456.9596 L 35.794888 461.08652 L 35.794888 452.37418 Z" fill="#ff0e12"/><path d="M 46.59029 448.6141 L 46.59029 456.9596 L 35.794888 461.08652 L 35.794888 452.37418 Z" stroke="black" stroke-linecap="butt" stroke-linejoin="miter" stroke-width="1"/><path d="M 24.999905 448.6141 L 24.999905 456.9596 L 35.795105 461.08652 L 35.795105 452.37418 Z" fill="#ff0e12"/><path d="M 24.999905 448.6141 L 24.999905 456.9596 L 35.795105 461.08652 L 35.795105 452.37418 Z" stroke="black" stroke-linecap="butt" stroke-linejoin="miter" stroke-width="1"/><path d="M 35.76577 444.8541 L 24.99992 448.56833 L 35.76577 452.28256 L 46.53162 448.56833 Z" fill="#ff0e12"/><path d="M 35.76577 444.8541 L 24.99992 448.56833 L 35.76577 452.28256 L 46.53162 448.56833 Z" stroke="black" stroke-linecap="butt" stroke-linejoin="miter" stroke-width="1"/><path d="M 46.59029 440.5801 L 46.59029 448.9256 L 35.794888 453.05252 L 35.794888 444.34018 Z" fill="yellow"/><path d="M 46.59029 440.5801 L 46.59029 448.9256 L 35.794888 453.05252 L 35.794888 444.34018 Z" stroke="black" stroke-linecap="butt" stroke-linejoin="miter" stroke-width="1"/><path d="M 24.999905 440.5801 L 24.999905 448.9256 L 35.795105 453.05252 L 35.795105 444.34018 Z" fill="yellow"/><path d="M 24.999905 440.5801 L 24.999905 448.9256 L 35.795105 453.05252 L 35.795105 444.34018 Z" stroke="black" stroke-linecap="butt" stroke-linejoin="miter" stroke-width="1"/><path d="M 35.76577 436.8201 L 24.99992 440.53433 L 35.76577 444.24857 L 46.53162 440.53433 Z" fill="yellow"/><path d="M 35.76577 436.8201 L 24.99992 440.53433 L 35.76577 444.24857 L 46.53162 440.53433 Z" stroke="black" stroke-linecap="butt" stroke-linejoin="miter" stroke-width="1"/><path d="M 46.59029 433.0441 L 46.59029 441.3896 L 35.794888 445.5165 L 35.794888 436.80417 Z" fill="lime"/><path d="M 46.59029 433.0441 L 46.59029 441.3896 L 35.794888 445.5165 L 35.794888 436.80417 Z" stroke="black" stroke-linecap="butt" stroke-linejoin="miter" stroke-width="1"/><path d="M 24.999905 433.0441 L 24.999905 441.3896 L 35.795105 445.5165 L 35.795105 436.80417 Z" fill="lime"/><path d="M 24.999905 433.0441 L 24.999905 441.3896 L 35.795105 445.5165 L 35.795105 436.80417 Z" stroke="black" stroke-linecap="butt" stroke-linejoin="miter" stroke-width="1"/><path d="M 35.76577 429.2831 L 24.99992 432.99734 L 35.76577 436.71158 L 46.53162 432.99734 Z" fill="lime"/><path d="M 35.76577 429.2831 L 24.99992 432.99734 L 35.76577 436.71158 L 46.53162 432.99734 Z" stroke="black" stroke-linecap="butt" stroke-linejoin="miter" stroke-width="1"/></g></g></svg>
