<?xml version="1.0"?>
<!DOCTYPE svg PUBLIC "-//W3C//DTD SVG 1.1//EN" "http://www.w3.org/Graphics/SVG/1.1/DTD/svg11.dtd">
<svg xmlns="http://www.w3.org/2000/svg" xmlns:xl="http://www.w3.org/1999/xlink" version="1.1" viewBox="236 51 26 45" width="26pt" height="45pt"><metadata xmlns:dc="http://purl.org/dc/elements/1.1/"><dc:date>2012-03-24 15:52Z</dc:date><!-- Produced by OmniGraffle Professional 4.2.1 --></metadata><defs></defs><g stroke="none" stroke-opacity="1" stroke-dasharray="none" fill="none" fill-opacity="1"><title>Canvas 1</title><g><title>Layer 1</title><path d="M 259.59042 81.05197 L 259.59042 89.39744 L 248.79501 93.52437 L 248.79501 84.812035 Z" fill="red"/><path d="M 259.59042 81.05197 L 259.59042 89.39744 L 248.79501 93.52437 L 248.79501 84.812035 Z" stroke="black" stroke-linecap="butt" stroke-linejoin="miter" stroke-width="1"/><path d="M 238.00003 81.05197 L 238.00003 89.39744 L 248.79523 93.52437 L 248.79523 84.812035 Z" fill="red"/><path d="M 238.00003 81.05197 L 238.00003 89.39744 L 248.79523 93.52437 L 248.79523 84.812035 Z" stroke="black" stroke-linecap="butt" stroke-linejoin="miter" stroke-width="1"/><path d="M 248.76582 77.29196 L 237.99997 81.00618 L 248.76582 84.7204 L 259.53168 81.00618 Z" fill="red"/><path d="M 248.76582 77.29196 L 237.99997 81.00618 L 248.76582 84.7204 L 259.53168 81.00618 Z" stroke="black" stroke-linecap="butt" stroke-linejoin="miter" stroke-width="1"/><path d="M 259.59042 73.01793 L 259.59042 81.363396 L 248.79501 85.490326 L 248.79501 76.77799 Z" fill="blue"/><path d="M 259.59042 73.01793 L 259.59042 81.363396 L 248.79501 85.490326 L 248.79501 76.77799 Z" stroke="black" stroke-linecap="butt" stroke-linejoin="miter" stroke-width="1"/><path d="M 238.00003 73.01793 L 238.00003 81.363396 L 248.79523 85.490326 L 248.79523 76.77799 Z" fill="blue"/><path d="M 238.00003 73.01793 L 238.00003 81.363396 L 248.79523 85.490326 L 248.79523 76.77799 Z" stroke="black" stroke-linecap="butt" stroke-linejoin="miter" stroke-width="1"/><path d="M 248.76582 69.25795 L 237.99997 72.97217 L 248.76582 76.686386 L 259.53168 72.97217 Z" fill="blue"/><path d="M 248.76582 69.25795 L 237.99997 72.97217 L 248.76582 76.686386 L 259.53168 72.97217 Z" stroke="black" stroke-linecap="butt" stroke-linejoin="miter" stroke-width="1"/></g></g></svg>
