<?xml version="1.0"?>
<!DOCTYPE svg PUBLIC "-//W3C//DTD SVG 1.1//EN" "http://www.w3.org/Graphics/SVG/1.1/DTD/svg11.dtd">
<svg xmlns="http://www.w3.org/2000/svg" xmlns:xl="http://www.w3.org/1999/xlink" version="1.1" viewBox="236 108 26 44" width="26pt" height="44pt"><metadata xmlns:dc="http://purl.org/dc/elements/1.1/"><dc:date>2012-03-24 15:52Z</dc:date><!-- Produced by OmniGraffle Professional 4.2.1 --></metadata><defs></defs><g stroke="none" stroke-opacity="1" stroke-dasharray="none" fill="none" fill-opacity="1"><title>Canvas 1</title><g><title>Layer 1</title><path d="M 259.5904 137.96399 L 259.5904 146.30946 L 248.79498 150.4364 L 248.79498 141.72406 Z" fill="yellow"/><path d="M 259.5904 137.96399 L 259.5904 146.30946 L 248.79498 150.4364 L 248.79498 141.72406 Z" stroke="black" stroke-linecap="butt" stroke-linejoin="miter" stroke-width="1"/><path d="M 238 137.96399 L 238 146.30946 L 248.7952 150.4364 L 248.7952 141.72406 Z" fill="yellow"/><path d="M 238 137.96399 L 238 146.30946 L 248.7952 150.4364 L 248.7952 141.72406 Z" stroke="black" stroke-linecap="butt" stroke-linejoin="miter" stroke-width="1"/><path d="M 248.76587 134.203995 L 238.00002 137.91821 L 248.76587 141.63243 L 259.53171 137.91821 Z" fill="yellow"/><path d="M 248.76587 134.203995 L 238.00002 137.91821 L 248.76587 141.63243 L 259.53171 137.91821 Z" stroke="black" stroke-linecap="butt" stroke-linejoin="miter" stroke-width="1"/><path d="M 259.5904 129.9299 L 259.5904 138.275375 L 248.79498 142.40231 L 248.79498 133.68997 Z" fill="blue"/><path d="M 259.5904 129.9299 L 259.5904 138.275375 L 248.79498 142.40231 L 248.79498 133.68997 Z" stroke="black" stroke-linecap="butt" stroke-linejoin="miter" stroke-width="1"/><path d="M 238 129.9299 L 238 138.275375 L 248.7952 142.40231 L 248.7952 133.68997 Z" fill="blue"/><path d="M 238 129.9299 L 238 138.275375 L 248.7952 142.40231 L 248.7952 133.68997 Z" stroke="black" stroke-linecap="butt" stroke-linejoin="miter" stroke-width="1"/><path d="M 248.76587 126.16991 L 238.00002 129.884125 L 248.76587 133.59834 L 259.53171 129.884125 Z" fill="blue"/><path d="M 248.76587 126.16991 L 238.00002 129.884125 L 248.76587 133.59834 L 259.53171 129.884125 Z" stroke="black" stroke-linecap="butt" stroke-linejoin="miter" stroke-width="1"/></g></g></svg>
