<?xml version="1.0"?>
<!DOCTYPE svg PUBLIC "-//W3C//DTD SVG 1.1//EN" "http://www.w3.org/Graphics/SVG/1.1/DTD/svg11.dtd">
<svg xmlns="http://www.w3.org/2000/svg" xmlns:xl="http://www.w3.org/1999/xlink" version="1.1" viewBox="235 171 26 44" width="26pt" height="44pt"><metadata xmlns:dc="http://purl.org/dc/elements/1.1/"><dc:date>2012-03-24 15:52Z</dc:date><!-- Produced by OmniGraffle Professional 4.2.1 --></metadata><defs></defs><g stroke="none" stroke-opacity="1" stroke-dasharray="none" fill="none" fill-opacity="1"><title>Canvas 1</title><g><title>Layer 1</title><path d="M 258.59042 200.70001 L 258.59042 209.04549 L 247.79501 213.17242 L 247.79501 204.46008 Z" fill="#ff0e12"/><path d="M 258.59042 200.70001 L 258.59042 209.04549 L 247.79501 213.17242 L 247.79501 204.46008 Z" stroke="black" stroke-linecap="butt" stroke-linejoin="miter" stroke-width="1"/><path d="M 237 200.70001 L 237 209.04549 L 247.7952 213.17242 L 247.7952 204.46008 Z" fill="#ff0e12"/><path d="M 237 200.70001 L 237 209.04549 L 247.7952 213.17242 L 247.7952 204.46008 Z" stroke="black" stroke-linecap="butt" stroke-linejoin="miter" stroke-width="1"/><path d="M 247.76585 196.94 L 237 200.65422 L 247.76585 204.36844 L 258.53171 200.65422 Z" fill="#ff0e12"/><path d="M 247.76585 196.94 L 237 200.65422 L 247.76585 204.36844 L 258.53171 200.65422 Z" stroke="black" stroke-linecap="butt" stroke-linejoin="miter" stroke-width="1"/><path d="M 258.59042 192.66597 L 258.59042 201.01144 L 247.79501 205.13838 L 247.79501 196.42604 Z" fill="yellow"/><path d="M 258.59042 192.66597 L 258.59042 201.01144 L 247.79501 205.13838 L 247.79501 196.42604 Z" stroke="black" stroke-linecap="butt" stroke-linejoin="miter" stroke-width="1"/><path d="M 237 192.66597 L 237 201.01144 L 247.7952 205.13838 L 247.7952 196.42604 Z" fill="yellow"/><path d="M 237 192.66597 L 237 201.01144 L 247.7952 205.13838 L 247.7952 196.42604 Z" stroke="black" stroke-linecap="butt" stroke-linejoin="miter" stroke-width="1"/><path d="M 247.76585 188.90599 L 237 192.62021 L 247.76585 196.33443 L 258.53171 192.62021 Z" fill="yellow"/><path d="M 247.76585 188.90599 L 237 192.62021 L 247.76585 196.33443 L 258.53171 192.62021 Z" stroke="black" stroke-linecap="butt" stroke-linejoin="miter" stroke-width="1"/><path d="M 258.59042 185.12999 L 258.59042 193.47546 L 247.79501 197.6024 L 247.79501 188.89006 Z" fill="blue"/><path d="M 258.59042 185.12999 L 258.59042 193.47546 L 247.79501 197.6024 L 247.79501 188.89006 Z" stroke="black" stroke-linecap="butt" stroke-linejoin="miter" stroke-width="1"/><path d="M 237 185.12999 L 237 193.47546 L 247.7952 197.6024 L 247.7952 188.89006 Z" fill="blue"/><path d="M 237 185.12999 L 237 193.47546 L 247.7952 197.6024 L 247.7952 188.89006 Z" stroke="black" stroke-linecap="butt" stroke-linejoin="miter" stroke-width="1"/><path d="M 247.76585 181.36897 L 237 185.08319 L 247.76585 188.79741 L 258.53171 185.08319 Z" fill="blue"/><path d="M 247.76585 181.36897 L 237 185.08319 L 247.76585 188.79741 L 258.53171 185.08319 Z" stroke="black" stroke-linecap="butt" stroke-linejoin="miter" stroke-width="1"/></g></g></svg>
