<?xml version="1.0"?>
<!DOCTYPE svg PUBLIC "-//W3C//DTD SVG 1.1//EN" "http://www.w3.org/Graphics/SVG/1.1/DTD/svg11.dtd">
<svg xmlns="http://www.w3.org/2000/svg" xmlns:xl="http://www.w3.org/1999/xlink" version="1.1" viewBox="235 227 26 44" width="26pt" height="44pt"><metadata xmlns:dc="http://purl.org/dc/elements/1.1/"><dc:date>2012-03-24 15:52Z</dc:date><!-- Produced by OmniGraffle Professional 4.2.1 --></metadata><defs></defs><g stroke="none" stroke-opacity="1" stroke-dasharray="none" fill="none" fill-opacity="1"><title>Canvas 1</title><g><title>Layer 1</title><path d="M 258.5904 256.78601 L 258.5904 265.1315 L 247.79498 269.25842 L 247.79498 260.54608 Z" fill="lime"/><path d="M 258.5904 256.78601 L 258.5904 265.1315 L 247.79498 269.25842 L 247.79498 260.54608 Z" stroke="black" stroke-linecap="butt" stroke-linejoin="miter" stroke-width="1"/><path d="M 237 256.78601 L 237 265.1315 L 247.7952 269.25842 L 247.7952 260.54608 Z" fill="lime"/><path d="M 237 256.78601 L 237 265.1315 L 247.7952 269.25842 L 247.7952 260.54608 Z" stroke="black" stroke-linecap="butt" stroke-linejoin="miter" stroke-width="1"/><path d="M 247.76587 253.02602 L 237.00002 256.74023 L 247.76587 260.45447 L 258.53171 256.74023 Z" fill="lime"/><path d="M 247.76587 253.02602 L 237.00002 256.74023 L 247.76587 260.45447 L 258.53171 256.74023 Z" stroke="black" stroke-linecap="butt" stroke-linejoin="miter" stroke-width="1"/><path d="M 258.5904 248.75201 L 258.5904 257.0975 L 247.79498 261.22443 L 247.79498 252.51208 Z" fill="blue"/><path d="M 258.5904 248.75201 L 258.5904 257.0975 L 247.79498 261.22443 L 247.79498 252.51208 Z" stroke="black" stroke-linecap="butt" stroke-linejoin="miter" stroke-width="1"/><path d="M 237 248.75201 L 237 257.0975 L 247.7952 261.22443 L 247.7952 252.51208 Z" fill="blue"/><path d="M 237 248.75201 L 237 257.0975 L 247.7952 261.22443 L 247.7952 252.51208 Z" stroke="black" stroke-linecap="butt" stroke-linejoin="miter" stroke-width="1"/><path d="M 247.76587 244.99202 L 237.00002 248.70624 L 247.76587 252.42046 L 258.53171 248.70624 Z" fill="blue"/><path d="M 247.76587 244.99202 L 237.00002 248.70624 L 247.76587 252.42046 L 258.53171 248.70624 Z" stroke="black" stroke-linecap="butt" stroke-linejoin="miter" stroke-width="1"/></g></g></svg>
