<?xml version="1.0"?>
<!DOCTYPE svg PUBLIC "-//W3C//DTD SVG 1.1//EN" "http://www.w3.org/Graphics/SVG/1.1/DTD/svg11.dtd">
<svg xmlns="http://www.w3.org/2000/svg" xmlns:xl="http://www.w3.org/1999/xlink" version="1.1" viewBox="235 290 26 44" width="26pt" height="44pt"><metadata xmlns:dc="http://purl.org/dc/elements/1.1/"><dc:date>2012-03-24 15:52Z</dc:date><!-- Produced by OmniGraffle Professional 4.2.1 --></metadata><defs></defs><g stroke="none" stroke-opacity="1" stroke-dasharray="none" fill="none" fill-opacity="1"><title>Canvas 1</title><g><title>Layer 1</title><path d="M 258.5904 319.83203 L 258.5904 328.17752 L 247.79498 332.30444 L 247.79498 323.5921 Z" fill="#ff0e12"/><path d="M 258.5904 319.83203 L 258.5904 328.17752 L 247.79498 332.30444 L 247.79498 323.5921 Z" stroke="black" stroke-linecap="butt" stroke-linejoin="miter" stroke-width="1"/><path d="M 237 319.83203 L 237 328.17752 L 247.7952 332.30444 L 247.7952 323.5921 Z" fill="#ff0e12"/><path d="M 237 319.83203 L 237 328.17752 L 247.7952 332.30444 L 247.7952 323.5921 Z" stroke="black" stroke-linecap="butt" stroke-linejoin="miter" stroke-width="1"/><path d="M 247.76587 316.07202 L 237.00002 319.78625 L 247.76587 323.50049 L 258.53171 319.78625 Z" fill="#ff0e12"/><path d="M 247.76587 316.07202 L 237.00002 319.78625 L 247.76587 323.50049 L 258.53171 319.78625 Z" stroke="black" stroke-linecap="butt" stroke-linejoin="miter" stroke-width="1"/><path d="M 258.5904 311.79803 L 258.5904 320.14352 L 247.79498 324.27045 L 247.79498 315.5581 Z" fill="lime"/><path d="M 258.5904 311.79803 L 258.5904 320.14352 L 247.79498 324.27045 L 247.79498 315.5581 Z" stroke="black" stroke-linecap="butt" stroke-linejoin="miter" stroke-width="1"/><path d="M 237 311.79803 L 237 320.14352 L 247.7952 324.27045 L 247.7952 315.5581 Z" fill="lime"/><path d="M 237 311.79803 L 237 320.14352 L 247.7952 324.27045 L 247.7952 315.5581 Z" stroke="black" stroke-linecap="butt" stroke-linejoin="miter" stroke-width="1"/><path d="M 247.76587 308.03802 L 237.00002 311.75226 L 247.76587 315.4665 L 258.53171 311.75226 Z" fill="lime"/><path d="M 247.76587 308.03802 L 237.00002 311.75226 L 247.76587 315.4665 L 258.53171 311.75226 Z" stroke="black" stroke-linecap="butt" stroke-linejoin="miter" stroke-width="1"/><path d="M 258.5904 304.26202 L 258.5904 312.60751 L 247.79498 316.73444 L 247.79498 308.0221 Z" fill="blue"/><path d="M 258.5904 304.26202 L 258.5904 312.60751 L 247.79498 316.73444 L 247.79498 308.0221 Z" stroke="black" stroke-linecap="butt" stroke-linejoin="miter" stroke-width="1"/><path d="M 237 304.26202 L 237 312.60751 L 247.7952 316.73444 L 247.7952 308.0221 Z" fill="blue"/><path d="M 237 304.26202 L 237 312.60751 L 247.7952 316.73444 L 247.7952 308.0221 Z" stroke="black" stroke-linecap="butt" stroke-linejoin="miter" stroke-width="1"/><path d="M 247.76587 300.50098 L 237.00002 304.21521 L 247.76587 307.92944 L 258.53171 304.21521 Z" fill="blue"/><path d="M 247.76587 300.50098 L 237.00002 304.21521 L 247.76587 307.92944 L 258.53171 304.21521 Z" stroke="black" stroke-linecap="butt" stroke-linejoin="miter" stroke-width="1"/></g></g></svg>
