<?xml version="1.0"?>
<!DOCTYPE svg PUBLIC "-//W3C//DTD SVG 1.1//EN" "http://www.w3.org/Graphics/SVG/1.1/DTD/svg11.dtd">
<svg xmlns="http://www.w3.org/2000/svg" xmlns:xl="http://www.w3.org/1999/xlink" version="1.1" viewBox="236 353 26 44" width="26pt" height="44pt"><metadata xmlns:dc="http://purl.org/dc/elements/1.1/"><dc:date>2012-03-24 15:54Z</dc:date><!-- Produced by OmniGraffle Professional 4.2.1 --></metadata><defs></defs><g stroke="none" stroke-opacity="1" stroke-dasharray="none" fill="none" fill-opacity="1"><title>Canvas 1</title><g><title>Layer 1</title><path d="M 259.5904 382.60806 L 259.5904 390.95355 L 248.79498 395.08047 L 248.79498 386.36813 Z" fill="yellow"/><path d="M 259.5904 382.60806 L 259.5904 390.95355 L 248.79498 395.08047 L 248.79498 386.36813 Z" stroke="black" stroke-linecap="butt" stroke-linejoin="miter" stroke-width="1"/><path d="M 238 382.60806 L 238 390.95355 L 248.7952 395.08047 L 248.7952 386.36813 Z" fill="yellow"/><path d="M 238 382.60806 L 238 390.95355 L 248.7952 395.08047 L 248.7952 386.36813 Z" stroke="black" stroke-linecap="butt" stroke-linejoin="miter" stroke-width="1"/><path d="M 248.76587 378.84805 L 238.00002 382.56229 L 248.76587 386.27652 L 259.53171 382.56229 Z" fill="yellow"/><path d="M 248.76587 378.84805 L 238.00002 382.56229 L 248.76587 386.27652 L 259.53171 382.56229 Z" stroke="black" stroke-linecap="butt" stroke-linejoin="miter" stroke-width="1"/><path d="M 259.5904 374.57407 L 259.5904 382.91956 L 248.79498 387.04648 L 248.79498 378.33414 Z" fill="lime"/><path d="M 259.5904 374.57407 L 259.5904 382.91956 L 248.79498 387.04648 L 248.79498 378.33414 Z" stroke="black" stroke-linecap="butt" stroke-linejoin="miter" stroke-width="1"/><path d="M 238 374.57407 L 238 382.91956 L 248.7952 387.04648 L 248.7952 378.33414 Z" fill="lime"/><path d="M 238 374.57407 L 238 382.91956 L 248.7952 387.04648 L 248.7952 378.33414 Z" stroke="black" stroke-linecap="butt" stroke-linejoin="miter" stroke-width="1"/><path d="M 248.76587 370.81406 L 238.00002 374.5283 L 248.76587 378.24252 L 259.53171 374.5283 Z" fill="lime"/><path d="M 248.76587 370.81406 L 238.00002 374.5283 L 248.76587 378.24252 L 259.53171 374.5283 Z" stroke="black" stroke-linecap="butt" stroke-linejoin="miter" stroke-width="1"/><path d="M 259.5904 367.03806 L 259.5904 375.38354 L 248.79498 379.51047 L 248.79498 370.79813 Z" fill="blue"/><path d="M 259.5904 367.03806 L 259.5904 375.38354 L 248.79498 379.51047 L 248.79498 370.79813 Z" stroke="black" stroke-linecap="butt" stroke-linejoin="miter" stroke-width="1"/><path d="M 238 367.03806 L 238 375.38354 L 248.7952 379.51047 L 248.7952 370.79813 Z" fill="blue"/><path d="M 238 367.03806 L 238 375.38354 L 248.7952 379.51047 L 248.7952 370.79813 Z" stroke="black" stroke-linecap="butt" stroke-linejoin="miter" stroke-width="1"/><path d="M 248.76587 363.27707 L 238.00002 366.9913 L 248.76587 370.70554 L 259.53171 366.9913 Z" fill="blue"/><path d="M 248.76587 363.27707 L 238.00002 366.9913 L 248.76587 370.70554 L 259.53171 366.9913 Z" stroke="black" stroke-linecap="butt" stroke-linejoin="miter" stroke-width="1"/></g></g></svg>
