<?xml version="1.0"?>
<!DOCTYPE svg PUBLIC "-//W3C//DTD SVG 1.1//EN" "http://www.w3.org/Graphics/SVG/1.1/DTD/svg11.dtd">
<svg xmlns="http://www.w3.org/2000/svg" xmlns:xl="http://www.w3.org/1999/xlink" version="1.1" viewBox="236 417 26 44" width="26pt" height="44pt"><metadata xmlns:dc="http://purl.org/dc/elements/1.1/"><dc:date>2012-03-24 15:54Z</dc:date><!-- Produced by OmniGraffle Professional 4.2.1 --></metadata><defs></defs><g stroke="none" stroke-opacity="1" stroke-dasharray="none" fill="none" fill-opacity="1"><title>Canvas 1</title><g><title>Layer 1</title><path d="M 259.5904 446.349 L 259.5904 454.6945 L 248.795 458.8214 L 248.795 450.10907 Z" fill="#ff0e12"/><path d="M 259.5904 446.349 L 259.5904 454.6945 L 248.795 458.8214 L 248.795 450.10907 Z" stroke="black" stroke-linecap="butt" stroke-linejoin="miter" stroke-width="1"/><path d="M 238 446.349 L 238 454.6945 L 248.7952 458.8214 L 248.7952 450.10907 Z" fill="#ff0e12"/><path d="M 238 446.349 L 238 454.6945 L 248.7952 458.8214 L 248.7952 450.10907 Z" stroke="black" stroke-linecap="butt" stroke-linejoin="miter" stroke-width="1"/><path d="M 248.76585 442.589 L 238 446.30322 L 248.76585 450.01746 L 259.53171 446.30322 Z" fill="#ff0e12"/><path d="M 248.76585 442.589 L 238 446.30322 L 248.76585 450.01746 L 259.53171 446.30322 Z" stroke="black" stroke-linecap="butt" stroke-linejoin="miter" stroke-width="1"/><path d="M 259.5904 438.315 L 259.5904 446.6605 L 248.795 450.78741 L 248.795 442.07507 Z" fill="yellow"/><path d="M 259.5904 438.315 L 259.5904 446.6605 L 248.795 450.78741 L 248.795 442.07507 Z" stroke="black" stroke-linecap="butt" stroke-linejoin="miter" stroke-width="1"/><path d="M 238 438.315 L 238 446.6605 L 248.7952 450.78741 L 248.7952 442.07507 Z" fill="yellow"/><path d="M 238 438.315 L 238 446.6605 L 248.7952 450.78741 L 248.7952 442.07507 Z" stroke="black" stroke-linecap="butt" stroke-linejoin="miter" stroke-width="1"/><path d="M 248.76585 434.555 L 238 438.26923 L 248.76585 441.98346 L 259.53171 438.26923 Z" fill="yellow"/><path d="M 248.76585 434.555 L 238 438.26923 L 248.76585 441.98346 L 259.53171 438.26923 Z" stroke="black" stroke-linecap="butt" stroke-linejoin="miter" stroke-width="1"/><path d="M 259.5904 430.779 L 259.5904 439.12448 L 248.795 443.2514 L 248.795 434.53906 Z" fill="lime"/><path d="M 259.5904 430.779 L 259.5904 439.12448 L 248.795 443.2514 L 248.795 434.53906 Z" stroke="black" stroke-linecap="butt" stroke-linejoin="miter" stroke-width="1"/><path d="M 238 430.779 L 238 439.12448 L 248.7952 443.2514 L 248.7952 434.53906 Z" fill="lime"/><path d="M 238 430.779 L 238 439.12448 L 248.7952 443.2514 L 248.7952 434.53906 Z" stroke="black" stroke-linecap="butt" stroke-linejoin="miter" stroke-width="1"/><path d="M 248.76585 427.018 L 238 430.73224 L 248.76585 434.44647 L 259.53171 430.73224 Z" fill="lime"/><path d="M 248.76585 427.018 L 238 430.73224 L 248.76585 434.44647 L 259.53171 430.73224 Z" stroke="black" stroke-linecap="butt" stroke-linejoin="miter" stroke-width="1"/><path d="M 259.5904 423.409 L 259.5904 431.75449 L 248.795 435.8814 L 248.795 427.16907 Z" fill="blue"/><path d="M 259.5904 423.409 L 259.5904 431.75449 L 248.795 435.8814 L 248.795 427.16907 Z" stroke="black" stroke-linecap="butt" stroke-linejoin="miter" stroke-width="1"/><path d="M 238 423.409 L 238 431.75449 L 248.7952 435.8814 L 248.7952 427.16907 Z" fill="blue"/><path d="M 238 423.409 L 238 431.75449 L 248.7952 435.8814 L 248.7952 427.16907 Z" stroke="black" stroke-linecap="butt" stroke-linejoin="miter" stroke-width="1"/><path d="M 248.76585 419.64899 L 238 423.36322 L 248.76585 427.07745 L 259.53171 423.36322 Z" fill="blue"/><path d="M 248.76585 419.64899 L 238 423.36322 L 248.76585 427.07745 L 259.53171 423.36322 Z" stroke="black" stroke-linecap="butt" stroke-linejoin="miter" stroke-width="1"/></g></g></svg>
